<svg id="SvgjsSvg1973" width="1361.5" height="809" xmlns="http://www.w3.org/2000/svg" version="1.1" xmlns:xlink="http://www.w3.org/1999/xlink" xmlns:svgjs="http://svgjs.com/svgjs"><defs id="SvgjsDefs1974"><pattern id="SvgjsPattern1978" x="0" y="0" width="128.5" height="128" patternUnits="userSpaceOnUse"><image id="SvgjsImage1979" xlink:href="https://cdn3.iconfinder.com/data/icons/inficons/128/bitcoin.png" width="128.5" height="128" preserveAspectRatio="none" crossOrigin="anonymous" x="0" y="0"></image></pattern><marker id="SvgjsMarker1988" markerWidth="16" markerHeight="16" refX="13" refY="8" viewBox="0 0 16 16" orient="auto" markerUnits="userSpaceOnUse" stroke-dasharray="0,0"><circle id="SvgjsCircle1989" r="4" cx="8" cy="8" fill="#ffffff" stroke="#323232" stroke-width="2"></circle></marker><pattern id="SvgjsPattern1992" x="0" y="0" width="58" height="58" patternUnits="userSpaceOnUse"><image id="SvgjsImage1993" xlink:href="https://cdn1.processon.com/5ecc8850e0b34d5f262e471a?e=1590466144&amp;token=trhI0BY8QfVrIGn9nENop6JAc6l5nZuxhjQ62UfM:HpTtpNKESWOXXUYoRfS_aAjU3EU=" width="58" height="58" preserveAspectRatio="none" crossOrigin="anonymous" x="0" y="0"></image></pattern><marker id="SvgjsMarker1996" markerWidth="16" markerHeight="16" refX="13" refY="8" viewBox="0 0 16 16" orient="auto" markerUnits="userSpaceOnUse" stroke-dasharray="0,0"><circle id="SvgjsCircle1997" r="4" cx="8" cy="8" fill="#ffffff" stroke="#ffffff" stroke-width="2"></circle></marker><marker id="SvgjsMarker2012" markerWidth="16" markerHeight="16" refX="13" refY="8" viewBox="0 0 16 16" orient="auto" markerUnits="userSpaceOnUse" stroke-dasharray="0,0"><circle id="SvgjsCircle2013" r="4" cx="8" cy="8" fill="#ffffff" stroke="#ffffff" stroke-width="2"></circle></marker><marker id="SvgjsMarker2016" markerWidth="16" markerHeight="16" refX="13" refY="8" viewBox="0 0 16 16" orient="auto" markerUnits="userSpaceOnUse" stroke-dasharray="0,0"><circle id="SvgjsCircle2017" r="4" cx="8" cy="8" fill="#ffffff" stroke="#000000" stroke-width="2"></circle></marker><marker id="SvgjsMarker2020" markerWidth="16" markerHeight="16" refX="13" refY="8" viewBox="0 0 16 16" orient="auto" markerUnits="userSpaceOnUse" stroke-dasharray="0,0"><circle id="SvgjsCircle2021" r="4" cx="8" cy="8" fill="#ffffff" stroke="#323232" stroke-width="2"></circle></marker><marker id="SvgjsMarker2024" markerWidth="16" markerHeight="16" refX="13" refY="8" viewBox="0 0 16 16" orient="auto" markerUnits="userSpaceOnUse" stroke-dasharray="0,0"><circle id="SvgjsCircle2025" r="4" cx="8" cy="8" fill="#ffffff" stroke="#323232" stroke-width="2"></circle></marker><marker id="SvgjsMarker2028" markerWidth="16" markerHeight="16" refX="13" refY="8" viewBox="0 0 16 16" orient="auto" markerUnits="userSpaceOnUse" stroke-dasharray="0,0"><circle id="SvgjsCircle2029" r="4" cx="8" cy="8" fill="#ffffff" stroke="#323232" stroke-width="2"></circle></marker><marker id="SvgjsMarker2032" markerWidth="16" markerHeight="16" refX="13" refY="8" viewBox="0 0 16 16" orient="auto" markerUnits="userSpaceOnUse" stroke-dasharray="0,0"><circle id="SvgjsCircle2033" r="4" cx="8" cy="8" fill="#ffffff" stroke="#ffffff" stroke-width="2"></circle></marker><marker id="SvgjsMarker2036" markerWidth="16" markerHeight="12" refX="16" refY="6" viewBox="0 0 16 12" orient="auto" markerUnits="userSpaceOnUse" stroke-dasharray="0,0"><path id="SvgjsPath2037" d="M0,2 L14,6 L0,11 L0,2" fill="#323232" stroke="#323232" stroke-width="2"></path></marker><marker id="SvgjsMarker2064" markerWidth="16" markerHeight="16" refX="13" refY="8" viewBox="0 0 16 16" orient="auto" markerUnits="userSpaceOnUse" stroke-dasharray="0,0"><circle id="SvgjsCircle2065" r="4" cx="8" cy="8" fill="#ffffff" stroke="#323232" stroke-width="2"></circle></marker><marker id="SvgjsMarker2074" markerWidth="16" markerHeight="16" refX="13" refY="8" viewBox="0 0 16 16" orient="auto" markerUnits="userSpaceOnUse" stroke-dasharray="0,0"><circle id="SvgjsCircle2075" r="4" cx="8" cy="8" fill="#ffffff" stroke="#ffffff" stroke-width="2"></circle></marker><marker id="SvgjsMarker2114" markerWidth="16" markerHeight="16" refX="13" refY="8" viewBox="0 0 16 16" orient="auto" markerUnits="userSpaceOnUse" stroke-dasharray="0,0"><circle id="SvgjsCircle2115" r="4" cx="8" cy="8" fill="#ffffff" stroke="#ffffff" stroke-width="2"></circle></marker><marker id="SvgjsMarker2158" markerWidth="16" markerHeight="16" refX="13" refY="8" viewBox="0 0 16 16" orient="auto" markerUnits="userSpaceOnUse" stroke-dasharray="0,0"><circle id="SvgjsCircle2159" r="4" cx="8" cy="8" fill="#ffffff" stroke="#323232" stroke-width="2"></circle></marker><pattern id="SvgjsPattern2169" x="0" y="0" width="100" height="70" patternUnits="userSpaceOnUse"><image id="SvgjsImage2170" xlink:href="https://cdn1.processon.com/5ecc884fe0b34d5f262e4719?e=1590466144&amp;token=trhI0BY8QfVrIGn9nENop6JAc6l5nZuxhjQ62UfM:xr2ryfqtafsmwePeMsV5YDx3ojg=" width="100" height="70" preserveAspectRatio="none" crossOrigin="anonymous" x="0" y="0"></image></pattern></defs><rect id="SvgjsRect1975" width="1361.5" height="809" fill="#ffffff"></rect><g id="SvgjsG1976" transform="translate(25,347)"><path id="SvgjsPath1977" d="M 0 0L 128.5 0L 128.5 128L 0 128Z" stroke="none" fill="url(#SvgjsPattern1978)"></path></g><g id="SvgjsG1980" transform="translate(578.5,25)"><path id="SvgjsPath1981" d="M 0 0L 267 0L 267 49L 0 49Z" stroke="none" fill="none"></path><g id="SvgjsG1982"><text id="SvgjsText1983" font-family="宋体" text-anchor="middle" font-size="22px" width="267px" fill="#323232" font-weight="700" align="middle" lineHeight="125%" anchor="middle" family="宋体" size="22px" weight="700" font-style="" opacity="1" y="6.25" transform="rotate(0)"><tspan id="SvgjsTspan1984" dy="27" x="133.5"><tspan id="SvgjsTspan1985" style="text-decoration:;"> </tspan></tspan></text></g></g><g id="SvgjsG1986"><path id="SvgjsPath1987" d="M159 423L159 490L209.5 490" stroke="#323232" stroke-width="2" fill="none" marker-end="url(#SvgjsMarker1988)"></path></g><g id="SvgjsG1990" transform="translate(1247.5,384)"><path id="SvgjsPath1991" d="M 0 0L 58 0L 58 58L 0 58Z" stroke="none" fill="url(#SvgjsPattern1992)"></path></g><g id="SvgjsG1994"><path id="SvgjsPath1995" d="M802.5 413L693.5 413L693.5 413L584.5 413" stroke="#ffffff" stroke-width="2" fill="none" marker-end="url(#SvgjsMarker1996)"></path></g><g id="SvgjsG1998" transform="translate(41.5,378)"><path id="SvgjsPath1999" d="M 0 35L 45 0L 90 35L 45 70L 0 35Z" stroke="rgba(50,50,50,1)" stroke-width="2" fill-opacity="1" fill="#ffffff"></path><g id="SvgjsG2000"><text id="SvgjsText2001" font-family="微软雅黑" text-anchor="middle" font-size="12px" width="70px" fill="#323232" font-weight="400" align="middle" lineHeight="125%" anchor="middle" family="微软雅黑" size="12px" weight="400" font-style="" opacity="1" y="3.5" transform="rotate(0)"><tspan id="SvgjsTspan2002" dy="15" x="45"><tspan id="SvgjsTspan2003" style="text-decoration:;"> </tspan></tspan><tspan id="SvgjsTspan2004" dy="15" x="45"><tspan id="SvgjsTspan2005" style="text-decoration:;">2009年BTC</tspan></tspan><tspan id="SvgjsTspan2006" dy="15" x="45"><tspan id="SvgjsTspan2007" style="text-decoration:;">创世</tspan></tspan><tspan id="SvgjsTspan2008" dy="15" x="45"><tspan id="SvgjsTspan2009" style="text-decoration:;"> </tspan></tspan></text></g></g><g id="SvgjsG2010"><path id="SvgjsPath2011" d="M571.5 475L571.5 443.5L571.5 443.5L571.5 412" stroke="#ffffff" stroke-width="2" fill="none" marker-end="url(#SvgjsMarker2012)"></path></g><g id="SvgjsG2014"><path id="SvgjsPath2015" d="M564.5 423L564.5 442L564.5 442L564.5 461" stroke="#000000" stroke-width="2" fill="none" marker-end="url(#SvgjsMarker2016)"></path></g><g id="SvgjsG2018"><path id="SvgjsPath2019" d="M687 403L687 371.5L687 371.5L687 340" stroke="#323232" stroke-width="2" fill="none" marker-end="url(#SvgjsMarker2020)"></path></g><g id="SvgjsG2022"><path id="SvgjsPath2023" d="M805.5 423L805.5 442L805.5 442L805.5 461" stroke="#323232" stroke-width="2" fill="none" marker-end="url(#SvgjsMarker2024)"></path></g><g id="SvgjsG2026"><path id="SvgjsPath2027" d="M988 403L988 371.5L988 371.5L988 340" stroke="#323232" stroke-width="2" fill="none" marker-end="url(#SvgjsMarker2028)"></path></g><g id="SvgjsG2030"><path id="SvgjsPath2031" d="M593.5 657L563.5 657L563.5 592L652.5 592L652.5 647L682.5 647" stroke="#ffffff" stroke-width="2" fill="none" marker-end="url(#SvgjsMarker2032)"></path></g><g id="SvgjsG2034"><path id="SvgjsPath2035" d="M131.5 413L685.5 413L685.5 413L1239.5 413" stroke="#323232" stroke-width="2" fill="none" marker-end="url(#SvgjsMarker2036)"></path></g><g id="SvgjsG2038" transform="translate(795.5,403)"><path id="SvgjsPath2039" d="M 0 10C 0 -3.3333333333333335 20 -3.3333333333333335 20 10C 20 23.333333333333332 0 23.333333333333332 0 10Z" stroke="rgba(50,50,50,1)" stroke-width="2" fill-opacity="1" fill="#fbb957"></path><g id="SvgjsG2040"><text id="SvgjsText2041" font-family="微软雅黑" text-anchor="middle" font-size="13px" width="0px" fill="#323232" font-weight="400" align="middle" lineHeight="125%" anchor="middle" family="微软雅黑" size="13px" weight="400" font-style="" opacity="1" y="0.375" transform="rotate(0)"></text></g></g><g id="SvgjsG2042" transform="translate(677,403)"><path id="SvgjsPath2043" d="M 0 10C 0 -3.3333333333333335 20 -3.3333333333333335 20 10C 20 23.333333333333332 0 23.333333333333332 0 10Z" stroke="rgba(50,50,50,1)" stroke-width="2" fill-opacity="1" fill="#ee3f4d"></path><g id="SvgjsG2044"><text id="SvgjsText2045" font-family="微软雅黑" text-anchor="middle" font-size="13px" width="0px" fill="#323232" font-weight="400" align="middle" lineHeight="125%" anchor="middle" family="微软雅黑" size="13px" weight="400" font-style="" opacity="1" y="0.375" transform="rotate(0)"></text></g></g><g id="SvgjsG2046" transform="translate(554.5,403)"><path id="SvgjsPath2047" d="M 0 10C 0 -3.3333333333333335 20 -3.3333333333333335 20 10C 20 23.333333333333332 0 23.333333333333332 0 10Z" stroke="rgba(23,23,23,1)" stroke-width="2" fill-opacity="1" fill="#66b2ff"></path><g id="SvgjsG2048"><text id="SvgjsText2049" font-family="微软雅黑" text-anchor="middle" font-size="13px" width="0px" fill="#323232" font-weight="400" align="middle" lineHeight="125%" anchor="middle" family="微软雅黑" size="13px" weight="400" font-style="" opacity="1" y="0.375" transform="rotate(0)"></text></g></g><g id="SvgjsG2050" transform="translate(424.5,403)"><path id="SvgjsPath2051" d="M 0 10C 0 -3.3333333333333335 20 -3.3333333333333335 20 10C 20 23.333333333333332 0 23.333333333333332 0 10Z" stroke="rgba(50,50,50,1)" stroke-width="2" fill-opacity="1" fill="#fbb957"></path><g id="SvgjsG2052"><text id="SvgjsText2053" font-family="微软雅黑" text-anchor="middle" font-size="13px" width="0px" fill="#323232" font-weight="400" align="middle" lineHeight="125%" anchor="middle" family="微软雅黑" size="13px" weight="400" font-style="" opacity="1" y="0.375" transform="rotate(0)"></text></g></g><g id="SvgjsG2054" transform="translate(149,403)"><path id="SvgjsPath2055" d="M 0 10C 0 -3.3333333333333335 20 -3.3333333333333335 20 10C 20 23.333333333333332 0 23.333333333333332 0 10Z" stroke="rgba(50,50,50,1)" stroke-width="2" fill-opacity="1" fill="#5cb3cc"></path><g id="SvgjsG2056"><text id="SvgjsText2057" font-family="微软雅黑" text-anchor="middle" font-size="13px" width="0px" fill="#323232" font-weight="400" align="middle" lineHeight="125%" anchor="middle" family="微软雅黑" size="13px" weight="400" font-style="" opacity="1" y="0.375" transform="rotate(0)"></text></g></g><g id="SvgjsG2058" transform="translate(978,403)"><path id="SvgjsPath2059" d="M 0 10C 0 -3.3333333333333335 20 -3.3333333333333335 20 10C 20 23.333333333333332 0 23.333333333333332 0 10Z" stroke="rgba(50,50,50,1)" stroke-width="2" fill-opacity="1" fill="#ee3f4d"></path><g id="SvgjsG2060"><text id="SvgjsText2061" font-family="微软雅黑" text-anchor="middle" font-size="13px" width="0px" fill="#323232" font-weight="400" align="middle" lineHeight="125%" anchor="middle" family="微软雅黑" size="13px" weight="400" font-style="" opacity="1" y="0.375" transform="rotate(0)"></text></g></g><g id="SvgjsG2062"><path id="SvgjsPath2063" d="M434.5 403L434.5 323L408 323" stroke="#323232" stroke-width="2" fill="none" marker-end="url(#SvgjsMarker2064)"></path></g><g id="SvgjsG2066" transform="translate(504.5,83)"><path id="SvgjsPath2067" d="M 0 0L 434.5 0L 434.5 71L 0 71Z" stroke="none" fill="none"></path><g id="SvgjsG2068"><text id="SvgjsText2069" font-family="微软雅黑" text-anchor="middle" font-size="25px" width="435px" fill="#323232" font-weight="700" align="middle" lineHeight="125%" anchor="middle" family="微软雅黑" size="25px" weight="700" font-style="" opacity="1" y="14.875" transform="rotate(0)"><tspan id="SvgjsTspan2070" dy="31" x="217.5"><tspan id="SvgjsTspan2071" style="text-decoration:;">政策变迁史</tspan></tspan></text></g></g><g id="SvgjsG2072"><path id="SvgjsPath2073" d="M939 84.775L969 84.775L969 53L940.5 53L940.5 107L910.5 107" stroke="#ffffff" stroke-width="2" fill="none" marker-end="url(#SvgjsMarker2074)"></path></g><g id="SvgjsG2076" transform="translate(219.5,472)"><path id="SvgjsPath2077" d="M 0 0L 120 0L 120 40L 0 40Z" stroke="none" fill="none"></path><g id="SvgjsG2078"><text id="SvgjsText2079" font-family="微软雅黑" text-anchor="middle" font-size="13px" width="120px" fill="#323232" font-weight="400" align="middle" lineHeight="125%" anchor="middle" family="微软雅黑" size="13px" weight="400" font-style="" opacity="1" y="2.375" transform="rotate(0)"><tspan id="SvgjsTspan2080" dy="16" x="60"><tspan id="SvgjsTspan2081" style="text-decoration:;">3.12基础机位图+资</tspan></tspan><tspan id="SvgjsTspan2082" dy="16" x="60"><tspan id="SvgjsTspan2083" style="text-decoration:;">产列表拆分</tspan></tspan></text></g></g><g id="SvgjsG2084" transform="translate(137.5,292)"><path id="SvgjsPath2085" d="M 0 0L 273 0L 273 53L 0 53Z" stroke="none" fill="none"></path><g id="SvgjsG2086"><text id="SvgjsText2087" font-family="微软雅黑" text-anchor="middle" font-size="13px" width="273px" fill="#323232" font-weight="400" align="middle" lineHeight="125%" anchor="middle" family="微软雅黑" size="13px" weight="400" font-style="" opacity="1" y="16.875" transform="rotate(0)"><tspan id="SvgjsTspan2088" dy="16" x="136.5"><tspan id="SvgjsTspan2089" style="text-decoration:;">3.17之前完成故事内容动捕并提供动捕动画</tspan></tspan></text></g></g><g id="SvgjsG2090" transform="translate(507.5,478)"><path id="SvgjsPath2091" d="M 0 0L 120 0L 120 40L 0 40Z" stroke="none" fill="none"></path><g id="SvgjsG2092"><text id="SvgjsText2093" font-family="微软雅黑" text-anchor="middle" font-size="13px" width="120px" fill="#323232" font-weight="400" align="middle" lineHeight="125%" anchor="middle" family="微软雅黑" size="13px" weight="400" font-style="" opacity="1" y="-13.625" transform="rotate(0)"><tspan id="SvgjsTspan2094" dy="16" x="60"><tspan id="SvgjsTspan2095" style="text-decoration:;">第一版layout，3月</tspan></tspan><tspan id="SvgjsTspan2096" dy="16" x="60"><tspan id="SvgjsTspan2097" style="text-decoration:;">25号。不包括特殊内</tspan></tspan><tspan id="SvgjsTspan2098" dy="16" x="60"><tspan id="SvgjsTspan2099" style="text-decoration:;">容。带参考音乐，音</tspan></tspan><tspan id="SvgjsTspan2100" dy="16" x="60"><tspan id="SvgjsTspan2101" style="text-decoration:;">效。</tspan></tspan></text></g></g><g id="SvgjsG2102" transform="translate(512.5,302)"><path id="SvgjsPath2103" d="M 0 0L 324 0L 324 28L 0 28Z" stroke="none" fill="none"></path><g id="SvgjsG2104"><text id="SvgjsText2105" font-family="微软雅黑" text-anchor="middle" font-size="13px" width="324px" fill="#323232" font-weight="400" align="middle" lineHeight="125%" anchor="middle" family="微软雅黑" size="13px" weight="400" font-style="" opacity="1" y="-11.625" transform="rotate(0)"><tspan id="SvgjsTspan2106" dy="16" x="162"><tspan id="SvgjsTspan2107" style="text-decoration:;">3.31之前，完成特殊内容动捕，交付动画。得到第一版初</tspan></tspan><tspan id="SvgjsTspan2108" dy="16" x="162"><tspan id="SvgjsTspan2109" style="text-decoration:;">步音效。（面补3.31之前无法完成，待定。即完成手指</tspan></tspan><tspan id="SvgjsTspan2110" dy="16" x="162"><tspan id="SvgjsTspan2111" style="text-decoration:;">+舞枪）</tspan></tspan></text></g></g><g id="SvgjsG2112"><path id="SvgjsPath2113" d="M836.5 316L868.5 316L868.5 304L900.5 304" stroke="#ffffff" stroke-width="2" fill="none" marker-end="url(#SvgjsMarker2114)"></path></g><g id="SvgjsG2116" transform="translate(733.5,472)"><path id="SvgjsPath2117" d="M 0 0L 189 0L 189 67L 0 67Z" stroke="none" fill="none"></path><g id="SvgjsG2118"><text id="SvgjsText2119" font-family="微软雅黑" text-anchor="middle" font-size="13px" width="189px" fill="#323232" font-weight="400" align="middle" lineHeight="125%" anchor="middle" family="微软雅黑" size="13px" weight="400" font-style="" opacity="1" y="7.875" transform="rotate(0)"><tspan id="SvgjsTspan2120" dy="16" x="94.5"><tspan id="SvgjsTspan2121" style="text-decoration:;">4.9之前，出第二版layout，包括</tspan></tspan><tspan id="SvgjsTspan2122" dy="16" x="94.5"><tspan id="SvgjsTspan2123" style="text-decoration:;">特殊动作内容。带第一版初步音</tspan></tspan><tspan id="SvgjsTspan2124" dy="16" x="94.5"><tspan id="SvgjsTspan2125" style="text-decoration:;">乐，带音效。</tspan></tspan></text></g></g><g id="SvgjsG2126" transform="translate(922.5,286)"><path id="SvgjsPath2127" d="M 0 0L 120 0L 120 40L 0 40Z" stroke="none" fill="none"></path><g id="SvgjsG2128"><text id="SvgjsText2129" font-family="微软雅黑" text-anchor="middle" font-size="13px" width="120px" fill="#323232" font-weight="400" align="middle" lineHeight="125%" anchor="middle" family="微软雅黑" size="13px" weight="400" font-style="" opacity="1" y="2.375" transform="rotate(0)"><tspan id="SvgjsTspan2130" dy="16" x="60"><tspan id="SvgjsTspan2131" style="text-decoration:;">4.16之前最终layout</tspan></tspan><tspan id="SvgjsTspan2132" dy="16" x="60"><tspan id="SvgjsTspan2133" style="text-decoration:;">定稿</tspan></tspan></text></g></g><g id="SvgjsG2134" transform="translate(1076.5,401)"><path id="SvgjsPath2135" d="M 0 10C 0 -3.3333333333333335 20 -3.3333333333333335 20 10C 20 23.333333333333332 0 23.333333333333332 0 10Z" stroke="rgba(50,50,50,1)" stroke-width="2" fill-opacity="1" fill="#ee3f4d"></path><g id="SvgjsG2136"><text id="SvgjsText2137" font-family="微软雅黑" text-anchor="middle" font-size="13px" width="0px" fill="#323232" font-weight="400" align="middle" lineHeight="125%" anchor="middle" family="微软雅黑" size="13px" weight="400" font-style="" opacity="1" y="0.375" transform="rotate(0)"></text></g></g><g id="SvgjsG2138" transform="translate(1051.5,286)"><path id="SvgjsPath2139" d="M 0 0L 132 0L 132 57L 0 57Z" stroke="none" fill="none"></path><g id="SvgjsG2140"><text id="SvgjsText2141" font-family="微软雅黑" text-anchor="middle" font-size="13px" width="132px" fill="#323232" font-weight="400" align="middle" lineHeight="125%" anchor="middle" family="微软雅黑" size="13px" weight="400" font-style="" opacity="1" y="2.875" transform="rotate(0)"><tspan id="SvgjsTspan2142" dy="16" x="66"><tspan id="SvgjsTspan2143" style="text-decoration:;">4.30之前完成镜头资产</tspan></tspan><tspan id="SvgjsTspan2144" dy="16" x="66"><tspan id="SvgjsTspan2145" style="text-decoration:;">替换，并拿到最终音</tspan></tspan><tspan id="SvgjsTspan2146" dy="16" x="66"><tspan id="SvgjsTspan2147" style="text-decoration:;">效，音乐。</tspan></tspan></text></g></g><g id="SvgjsG2148" transform="translate(1216.5,338)"><path id="SvgjsPath2149" d="M 0 0L 120 0L 120 40L 0 40Z" stroke="none" fill="none"></path><g id="SvgjsG2150"><text id="SvgjsText2151" font-family="微软雅黑" text-anchor="middle" font-size="13px" width="120px" fill="#323232" font-weight="400" align="middle" lineHeight="125%" anchor="middle" family="微软雅黑" size="13px" weight="400" font-style="" opacity="1" y="2.375" transform="rotate(0)"><tspan id="SvgjsTspan2152" dy="16" x="60"><tspan id="SvgjsTspan2153" style="text-decoration:;">2021年，央行认为比</tspan></tspan><tspan id="SvgjsTspan2154" dy="16" x="60"><tspan id="SvgjsTspan2155" style="text-decoration:;">特币是“另类资产”</tspan></tspan></text></g></g><g id="SvgjsG2156"><path id="SvgjsPath2157" d="M1084.5 392.5L1084.5 370.25L1108.5 370.25L1108.5 348" stroke="#323232" stroke-width="2" fill="none" marker-end="url(#SvgjsMarker2158)"></path></g><g id="SvgjsG2160" transform="translate(922.5,242)"><path id="SvgjsPath2161" d="M 0 0L 120 0L 120 40L 0 40Z" stroke="none" fill="none"></path><g id="SvgjsG2162"><text id="SvgjsText2163" font-family="微软雅黑" text-anchor="middle" font-size="13px" width="120px" fill="#323232" font-weight="400" align="middle" lineHeight="125%" anchor="middle" family="微软雅黑" size="13px" weight="400" font-style="" opacity="1" y="10.375" transform="rotate(0)"><tspan id="SvgjsTspan2164" dy="16" x="60"><tspan id="SvgjsTspan2165" style="text-decoration:;">4.16面补</tspan><tspan id="SvgjsTspan2166" style="text-decoration:;text-decoration: underline;">deadline</tspan></tspan></text></g></g><g id="SvgjsG2167" transform="translate(653.5,714)"><path id="SvgjsPath2168" d="M 0 0L 100 0L 100 70L 0 70Z" stroke="rgba(50,50,50,1)" stroke-width="2" fill="url(#SvgjsPattern2169)"></path><g id="SvgjsG2171"><text id="SvgjsText2172" font-family="微软雅黑" text-anchor="middle" font-size="13px" width="80px" fill="#323232" font-weight="400" align="middle" lineHeight="125%" anchor="middle" family="微软雅黑" size="13px" weight="400" font-style="" opacity="1" y="25.375" transform="rotate(0)"></text></g></g></svg>